<?xml version="1.0" encoding="iso-8859-1"?>
<!-- Uploaded to: SVG Repo, www.svgrepo.com, Generator: SVG Repo Mixer Tools -->
<!DOCTYPE svg PUBLIC "-//W3C//DTD SVG 1.1//EN" "http://www.w3.org/Graphics/SVG/1.1/DTD/svg11.dtd">
<svg fill="orange" height="800px" width="800px" version="1.1" id="Capa_1" xmlns="http://www.w3.org/2000/svg" xmlns:xlink="http://www.w3.org/1999/xlink" 
	 viewBox="0 0 297 297" xml:space="preserve">
<g>
	<path d="M164.708,122.461c-2.584,0-5.109,1.051-6.947,2.878c-1.828,1.828-2.879,4.363-2.879,6.947s1.051,5.119,2.879,6.946
		c1.828,1.828,4.363,2.88,6.947,2.88c2.584,0,5.119-1.052,6.947-2.88c1.836-1.827,2.879-4.362,2.879-6.946s-1.043-5.119-2.879-6.947
		C169.827,123.512,167.292,122.461,164.708,122.461z"/>
	<path d="M293.964,84.019L212.931,2.916C211.061,1.049,208.532,0,205.892,0c-0.002,0-0.002,0-0.004,0L91.229,0.054
		c-2.637,0.001-5.168,1.051-7.031,2.917L3.091,84.146c-1.867,1.866-2.914,4.398-2.914,7.039L0.12,205.933
		c0,2.644,1.049,5.178,2.916,7.049l81.033,81.103c1.869,1.867,4.398,2.916,7.037,2.916c0.002,0,0.002,0,0.004,0l114.656-0.055
		c2.637-0.002,5.168-1.051,7.031-2.918l81.109-81.175c1.867-1.865,2.914-4.398,2.916-7.038l0.057-114.749
		C296.88,88.422,295.831,85.888,293.964,84.019z M209.517,269.145l-7.359-19.61l48.869-49.109l18.678,8.483L209.517,269.145z
		 M27.772,209.57l19.877-7.459l48.832,49.073l-8.479,18.667L27.772,209.57z M20.069,106.372l19.361,8.794v69.039l-19.404,7.282
		L20.069,106.372z M87.464,27.873l7.359,19.607l-48.84,49.08L27.31,88.077L87.464,27.873z M269.19,87.391l-19.877,7.46
		l-48.836-49.073l8.479-18.666L269.19,87.391z M148.499,187.311c-21.4,0-38.81-17.411-38.81-38.812s17.41-38.811,38.81-38.811
		s38.813,17.411,38.813,38.811S169.899,187.311,148.499,187.311z M176.995,97.477l14.795-32.571l37.338,37.52l-32.914,12.354
		C191.183,107.682,184.616,101.751,176.995,97.477z M158.403,90.892c-3.221-0.552-6.527-0.856-9.904-0.856
		c-5.506,0-10.83,0.782-15.885,2.211l-12.623-33.635h53.074L158.403,90.892z M114.817,100.757
		c-7.102,5.025-13.035,11.586-17.314,19.203l-32.426-14.729l37.34-37.521L114.817,100.757z M90.901,138.545
		c-0.559,3.237-0.865,6.56-0.865,9.954c0,5.506,0.781,10.829,2.211,15.885L59.083,176.83v-52.738L90.901,138.545z M100.757,182.18
		c5.023,7.102,11.586,13.036,19.203,17.316l-14.789,32.56l-37.338-37.52L100.757,182.18z M138.546,206.097
		c3.236,0.559,6.559,0.866,9.953,0.866c5.498,0,10.815-0.779,15.863-2.205l12.621,33.628H123.88L138.546,206.097z M182.161,196.255
		c7.115-5.03,13.061-11.601,17.344-19.231l32.428,14.729l-37.367,37.551L182.161,196.255z M206.101,158.436
		c0.557-3.233,0.861-6.549,0.861-9.938c0-5.522-0.785-10.862-2.223-15.931l33.178-12.451v52.77L206.101,158.436z M181.991,38.96
		h-69.375l-7.129-18.994l85.15-0.042L181.991,38.96z M114.952,258.037h69.406l7.129,18.997l-85.184,0.042L114.952,258.037z
		 M257.567,181.813v-69.07l19.402-7.282l-0.041,85.147L257.567,181.813z"/>
</g>
</svg>