<?xml version="1.0" encoding="iso-8859-1"?>
<!-- Uploaded to: SVG Repo, www.svgrepo.com, Generator: SVG Repo Mixer Tools -->
<svg fill="orange" height="800px" width="800px" version="1.1" id="Layer_1" xmlns="http://www.w3.org/2000/svg" xmlns:xlink="http://www.w3.org/1999/xlink" 
	 viewBox="0 0 512 512" xml:space="preserve">
<g>
	<g>
		<path d="M489.739,0H22.261C13.04,0,5.565,7.475,5.565,16.696s7.475,16.696,16.696,16.696h116.87v101.854
			c-38.057,7.757-66.783,41.484-66.783,81.799c0,14.585,3.879,28.645,11.529,41.79c2.99,5.137,8.486,8.297,14.429,8.297h40.824
			v44.522h-16.696c-9.22,0-16.696,7.475-16.696,16.696v166.956c0,9.22,7.475,16.696,16.696,16.696h66.783
			c9.22,0,16.696-7.475,16.696-16.696V328.348c0-9.22-7.475-16.696-16.696-16.696h-16.696V267.13h40.824
			c5.944,0,11.44-3.16,14.43-8.297c7.65-13.145,11.529-27.205,11.529-41.79c0-40.314-28.725-74.042-66.783-81.799V33.391h166.957
			v68.462c-38.057,7.756-66.783,41.484-66.783,81.799v33.391c0,9.22,7.475,16.696,16.696,16.696h50.087v44.522h-16.696
			c-9.22,0-16.696,7.475-16.696,16.696v166.956c0,9.22,7.475,16.696,16.696,16.696h66.783c9.22,0,16.696-7.475,16.696-16.696
			V294.957c0-9.22-7.475-16.696-16.696-16.696H372.87v-44.522h50.087c9.22,0,16.696-7.475,16.696-16.696v-33.391
			c0-40.314-28.725-74.042-66.783-81.799V33.391h116.87c9.22,0,16.696-7.475,16.696-16.696S498.96,0,489.739,0z M172.522,478.609
			H139.13V345.043h33.391V478.609z M205.913,217.043c0,5.674-1.023,11.261-3.05,16.696h-94.074
			c-2.027-5.435-3.05-11.021-3.05-16.696c0-27.618,22.469-50.087,50.087-50.087C183.444,166.957,205.913,189.426,205.913,217.043z
			 M372.87,445.217h-33.391V311.652h33.391V445.217z M406.261,183.652v16.696H306.087v-16.696c0-27.618,22.469-50.087,50.087-50.087
			C383.792,133.565,406.261,156.034,406.261,183.652z"/>
	</g>
</g>
</svg>